<?xml version="1.0" encoding="UTF-8" standalone="no"?>
<!-- Created with Inkscape (http://www.inkscape.org/) -->

<svg
   width="200mm"
   height="185.07474mm"
   viewBox="0 0 200 185.07474"
   version="1.1"
   id="svg1"
   xmlns="http://www.w3.org/2000/svg"
   xmlns:svg="http://www.w3.org/2000/svg">
  <defs
     id="defs1" />
  <g
     id="layer1"
     transform="translate(-1.19455e-5,-1.8369295e-5)">
    <g
       id="text1"
       style="font-size:16.9333px;line-height:0.49;font-family:EndfieldByButan;-inkscape-font-specification:'EndfieldByButan, Normal';letter-spacing:0px;word-spacing:0px;white-space:pre;inline-size:140.883;stroke:#000000;stroke-width:0.1;stroke-linecap:square"
       aria-label="rut&#10;ile"
       transform="matrix(11.105329,0,0,11.105329,-404.654,-499.86561)">
      <path
         id="path17"
         style="letter-spacing:-2.27542px;fill:#000000;fill-opacity:1;stroke:#000000;stroke-opacity:1"
         d="m 43.625761,53.329561 4.3e-5,-1.246435 1.246455,1.246432 v -8.268226 h -5.967657 l -2.364713,2.364714 v 2.951758 h 5.967594 v 0.587044 h -4.785238 v 2.364751 h 3.050933 v 2.839453 l -4.233294,5.457672 13.708724,4e-6 V 59.262016 H 47.859094 V 58.674972 H 54.397 V 50.378 l -2.951561,-1.96e-4 v -0.595313 h 2.951757 v -4.721159 h -4.134114 v 3.547071 h -0.669727 v -3.547071 h -2.364763 l 5e-5,8.268229 m -6.455464,5.932454 h 6.523677 v 0.595312 L 40.773178,59.8573 Z M 45.459241,45.06133 v 4.134115 h 1.182356 V 45.06133 Z m -6.852295,8.297169 c -0.573264,0 -1.061091,0.201194 -1.463477,0.603581 -0.402386,0.402386 -0.60358,0.890213 -0.60358,1.463476 0,0.573263 0.201194,1.061091 0.60358,1.463477 0.402386,0.402387 0.890213,0.603581 1.463477,0.603581 0.573262,0 1.06109,-0.201194 1.463476,-0.603581 0.402387,-0.402386 0.603581,-0.890214 0.603581,-1.463477 0,-0.573263 -0.201194,-1.06109 -0.603581,-1.463476 -0.402386,-0.402388 -0.890214,-0.603582 -1.463476,-0.603581 z m 8.621646,-0.0289 h -3.602788" />
    </g>
  </g>
</svg>
