<svg xmlns="http://www.w3.org/2000/svg" version="1.1" xmlns:xlink="http://www.w3.org/1999/xlink" xmlns:svgjs="http://svgjs.dev/svgjs" viewBox="0 0 800 800">
  <g fill="hsl(32, 100%, 51%)">
    <rect width="61" height="0.3" x="299.5" y="423.5" rx="0.5" transform="rotate(37, 330, 424)" opacity="0.11"></rect>
    <rect width="142" height="0.3" x="8" y="756.5" rx="0.5" transform="rotate(37, 79, 757)" opacity="0.96"></rect>
    <rect width="341" height="0.3" x="-130.5" y="216.5" rx="0.5" transform="rotate(37, 40, 217)" opacity="0.47"></rect>
    <rect width="637" height="0.3" x="-39.5" y="741.5" rx="0.5" transform="rotate(37, 279, 742)" opacity="0.59"></rect>
    <rect width="141" height="0.3" x="551.5" y="437.5" rx="0.5" transform="rotate(37, 622, 438)" opacity="0.27"></rect>
    <rect width="230" height="0.3" x="-86" y="657.5" rx="0.5" transform="rotate(37, 29, 658)" opacity="0.72"></rect>
    <rect width="141" height="0.3" x="640.5" y="270.5" rx="0.5" transform="rotate(37, 711, 271)" opacity="0.92"></rect>
    <rect width="174" height="0.3" x="573" y="511.5" rx="0.5" transform="rotate(37, 660, 512)" opacity="0.27"></rect>
    <rect width="783" height="0.3" x="152.5" y="273.5" rx="0.5" transform="rotate(37, 544, 274)" opacity="0.47"></rect>
    <rect width="532" height="0.3" x="391" y="601.5" rx="0.5" transform="rotate(37, 657, 602)" opacity="0.71"></rect>
    <rect width="83" height="0.3" x="718.5" y="745.5" rx="0.5" transform="rotate(37, 760, 746)" opacity="0.63"></rect>
    <rect width="61" height="0.3" x="439.5" y="38.5" rx="0.5" transform="rotate(37, 470, 39)" opacity="0.27"></rect>
    <rect width="77" height="0.3" x="-5.5" y="581.5" rx="0.5" transform="rotate(37, 33, 582)" opacity="0.33"></rect>
    <rect width="240" height="0.3" x="528" y="241.5" rx="0.5" transform="rotate(37, 648, 242)" opacity="0.86"></rect>
    <rect width="244" height="0.3" x="104" y="350.5" rx="0.5" transform="rotate(37, 226, 351)" opacity="0.92"></rect>
    <rect width="284" height="0.3" x="159" y="588.5" rx="0.5" transform="rotate(37, 301, 589)" opacity="0.69"></rect>
    <rect width="614" height="0.3" x="-252" y="481.5" rx="0.5" transform="rotate(37, 55, 482)" opacity="0.58"></rect>
    <rect width="90" height="0.3" x="276" y="38.5" rx="0.5" transform="rotate(37, 321, 39)" opacity="0.37"></rect>
    <rect width="139" height="0.3" x="209.5" y="162.5" rx="0.5" transform="rotate(37, 279, 163)" opacity="0.56"></rect>
    <rect width="478" height="0.3" x="-134" y="649.5" rx="0.5" transform="rotate(37, 105, 650)" opacity="0.88"></rect>
    <rect width="663" height="0.3" x="45.5" y="724.5" rx="0.5" transform="rotate(37, 377, 725)" opacity="0.26"></rect>
    <rect width="534" height="0.3" x="-109" y="756.5" rx="0.5" transform="rotate(37, 158, 757)" opacity="0.43"></rect>
    <rect width="250" height="0.3" x="-13" y="546.5" rx="0.5" transform="rotate(37, 112, 547)" opacity="0.43"></rect>
    <rect width="461" height="0.3" x="378.5" y="352.5" rx="0.5" transform="rotate(37, 609, 353)" opacity="0.67"></rect>
    <rect width="291" height="0.3" x="627.5" y="257.5" rx="0.5" transform="rotate(37, 773, 258)" opacity="0.60"></rect>
    <rect width="245" height="0.3" x="170.5" y="238.5" rx="0.5" transform="rotate(37, 293, 239)" opacity="0.43"></rect>
    <rect width="76" height="0.3" x="406" y="250.5" rx="0.5" transform="rotate(37, 444, 251)" opacity="0.65"></rect>
    <rect width="79" height="0.3" x="9.5" y="309.5" rx="0.5" transform="rotate(37, 49, 310)" opacity="0.55"></rect>
    <rect width="511" height="0.3" x="284.5" y="93.5" rx="0.5" transform="rotate(37, 540, 94)" opacity="0.27"></rect>
    <rect width="441" height="0.3" x="530.5" y="470.5" rx="0.5" transform="rotate(37, 751, 471)" opacity="0.81"></rect>
    <rect width="273" height="0.3" x="634.5" y="364.5" rx="0.5" transform="rotate(37, 771, 365)" opacity="0.22"></rect>
    <rect width="267" height="0.3" x="517.5" y="47.5" rx="0.5" transform="rotate(37, 651, 48)" opacity="0.96"></rect>
    <rect width="101" height="0.3" x="487.5" y="681.5" rx="0.5" transform="rotate(37, 538, 682)" opacity="0.36"></rect>
    <rect width="542" height="0.3" x="-47" y="86.5" rx="0.5" transform="rotate(37, 224, 87)" opacity="0.78"></rect>
    <rect width="188" height="0.3" x="652" y="108.5" rx="0.5" transform="rotate(37, 746, 109)" opacity="0.79"></rect>
    <rect width="218" height="0.3" x="163" y="294.5" rx="0.5" transform="rotate(37, 272, 295)" opacity="0.66"></rect>
    <rect width="382" height="0.3" x="450" y="768.5" rx="0.5" transform="rotate(37, 641, 769)" opacity="0.11"></rect>
    <rect width="280" height="0.3" x="254" y="580.5" rx="0.5" transform="rotate(37, 394, 581)" opacity="0.10"></rect>
    <rect width="149" height="0.3" x="-48.5" y="265.5" rx="0.5" transform="rotate(37, 26, 266)" opacity="0.66"></rect>
    <rect width="182" height="0.3" x="29" y="341.5" rx="0.5" transform="rotate(37, 120, 342)" opacity="0.55"></rect>
    <rect width="361" height="0.3" x="24.5" y="671.5" rx="0.5" transform="rotate(37, 205, 672)" opacity="0.31"></rect>
    <rect width="366" height="0.3" x="160" y="494.5" rx="0.5" transform="rotate(37, 343, 495)" opacity="0.82"></rect>
    <rect width="159" height="0.3" x="584.5" y="685.5" rx="0.5" transform="rotate(37, 664, 686)" opacity="0.57"></rect>
    <rect width="330" height="0.3" x="299" y="166.5" rx="0.5" transform="rotate(37, 464, 167)" opacity="0.83"></rect>
    <rect width="61" height="0.3" x="388.5" y="457.5" rx="0.5" transform="rotate(37, 419, 458)" opacity="0.45"></rect>
    <rect width="294" height="0.3" x="-103" y="398.5" rx="0.5" transform="rotate(37, 44, 399)" opacity="0.78"></rect>
    <rect width="494" height="0.3" x="127" y="105.5" rx="0.5" transform="rotate(37, 374, 106)" opacity="0.07"></rect>
    <rect width="166" height="0.3" x="517" y="166.5" rx="0.5" transform="rotate(37, 600, 167)" opacity="0.50"></rect>
    <rect width="334" height="0.3" x="343" y="589.5" rx="0.5" transform="rotate(37, 510, 590)" opacity="0.38"></rect>
    <rect width="74" height="0.3" x="458" y="531.5" rx="0.5" transform="rotate(37, 495, 532)" opacity="0.75"></rect>
    <rect width="413" height="0.3" x="213.5" y="397.5" rx="0.5" transform="rotate(37, 420, 398)" opacity="0.29"></rect>
    <rect width="346" height="0.3" x="83" y="445.5" rx="0.5" transform="rotate(37, 256, 446)" opacity="0.52"></rect>
    <rect width="409" height="0.3" x="-88.5" y="208.5" rx="0.5" transform="rotate(37, 116, 209)" opacity="0.54"></rect>
    <rect width="490" height="0.3" x="-43" y="560.5" rx="0.5" transform="rotate(37, 202, 561)" opacity="0.49"></rect>
    <rect width="372" height="0.3" x="-7" y="275.5" rx="0.5" transform="rotate(37, 179, 276)" opacity="0.12"></rect>
    <rect width="113" height="0.3" x="107.5" y="439.5" rx="0.5" transform="rotate(37, 164, 440)" opacity="0.63"></rect>
    <rect width="446" height="0.3" x="-182" y="145.5" rx="0.5" transform="rotate(37, 41, 146)" opacity="0.58"></rect>
    <rect width="645" height="0.3" x="-255.5" y="61.5" rx="0.5" transform="rotate(37, 67, 62)" opacity="0.77"></rect>
    <rect width="59" height="0.3" x="722.5" y="576.5" rx="0.5" transform="rotate(37, 752, 577)" opacity="0.77"></rect>
    <rect width="53" height="0.3" x="417.5" y="647.5" rx="0.5" transform="rotate(37, 444, 648)" opacity="0.89"></rect>
    <rect width="550" height="0.3" x="300" y="613.5" rx="0.5" transform="rotate(37, 575, 614)" opacity="0.13"></rect>
    <rect width="540" height="0.3" x="249" y="389.5" rx="0.5" transform="rotate(37, 519, 390)" opacity="0.58"></rect>
    <rect width="473" height="0.3" x="364.5" y="704.5" rx="0.5" transform="rotate(37, 601, 705)" opacity="0.28"></rect>
    <rect width="233" height="0.3" x="233.5" y="289.5" rx="0.5" transform="rotate(37, 350, 290)" opacity="0.97"></rect>
    <rect width="327" height="0.3" x="269.5" y="516.5" rx="0.5" transform="rotate(37, 433, 517)" opacity="0.50"></rect>
    <rect width="611" height="0.3" x="187.5" y="753.5" rx="0.5" transform="rotate(37, 493, 754)" opacity="0.96"></rect>
    <rect width="476" height="0.3" x="-18" y="222.5" rx="0.5" transform="rotate(37, 220, 223)" opacity="0.94"></rect>
    <rect width="559" height="0.3" x="77.5" y="196.5" rx="0.5" transform="rotate(37, 357, 197)" opacity="0.62"></rect>
    <rect width="88" height="0.3" x="-6" y="709.5" rx="0.5" transform="rotate(37, 38, 710)" opacity="0.32"></rect>
    <rect width="203" height="0.3" x="81.5" y="154.5" rx="0.5" transform="rotate(37, 183, 155)" opacity="0.25"></rect>
    <rect width="340" height="0.3" x="0" y="32.5" rx="0.5" transform="rotate(37, 170, 33)" opacity="0.82"></rect>
    <rect width="491" height="0.3" x="458.5" y="384.5" rx="0.5" transform="rotate(37, 704, 385)" opacity="0.50"></rect>
    <rect width="282" height="0.3" x="-119" y="769.5" rx="0.5" transform="rotate(37, 22, 770)" opacity="0.52"></rect>
    <rect width="287" height="0.3" x="359.5" y="462.5" rx="0.5" transform="rotate(37, 503, 463)" opacity="0.18"></rect>
    <rect width="378" height="0.3" x="543" y="674.5" rx="0.5" transform="rotate(37, 732, 675)" opacity="0.70"></rect>
    <rect width="90" height="0.3" x="531" y="521.5" rx="0.5" transform="rotate(37, 576, 522)" opacity="0.93"></rect>
    <rect width="231" height="0.3" x="328.5" y="326.5" rx="0.5" transform="rotate(37, 444, 327)" opacity="0.60"></rect>
    <rect width="98" height="0.3" x="294" y="360.5" rx="0.5" transform="rotate(37, 343, 361)" opacity="0.75"></rect>


    <rect width="61" height="0.3" x="299.5" y="423.5" rx="0.5" transform="rotate(140, 330, 424)" opacity="0.11"></rect>
    <rect width="142" height="0.3" x="8" y="756.5" rx="0.5" transform="rotate(140, 79, 757)" opacity="0.96"></rect>
    <rect width="341" height="0.3" x="-130.5" y="216.5" rx="0.5" transform="rotate(140, 40, 217)" opacity="0.47"></rect>
    <rect width="637" height="0.3" x="-39.5" y="741.5" rx="0.5" transform="rotate(140, 279, 742)" opacity="0.59"></rect>
    <rect width="141" height="0.3" x="551.5" y="437.5" rx="0.5" transform="rotate(140, 622, 438)" opacity="0.27"></rect>
    <rect width="230" height="0.3" x="-86" y="657.5" rx="0.5" transform="rotate(140, 29, 658)" opacity="0.72"></rect>
    <rect width="141" height="0.3" x="640.5" y="270.5" rx="0.5" transform="rotate(140, 711, 271)" opacity="0.92"></rect>
    <rect width="174" height="0.3" x="573" y="511.5" rx="0.5" transform="rotate(140, 660, 512)" opacity="0.27"></rect>
    <rect width="783" height="0.3" x="152.5" y="273.5" rx="0.5" transform="rotate(140, 544, 274)" opacity="0.47"></rect>
    <rect width="532" height="0.3" x="391" y="601.5" rx="0.5" transform="rotate(140, 657, 602)" opacity="0.71"></rect>
    <rect width="83" height="0.3" x="718.5" y="745.5" rx="0.5" transform="rotate(140, 760, 746)" opacity="0.63"></rect>
    <rect width="61" height="0.3" x="439.5" y="38.5" rx="0.5" transform="rotate(140, 470, 39)" opacity="0.27"></rect>
    <rect width="77" height="0.3" x="-5.5" y="581.5" rx="0.5" transform="rotate(140, 33, 582)" opacity="0.33"></rect>
    <rect width="240" height="0.3" x="528" y="241.5" rx="0.5" transform="rotate(140, 648, 242)" opacity="0.86"></rect>
    <rect width="244" height="0.3" x="104" y="350.5" rx="0.5" transform="rotate(140, 226, 351)" opacity="0.92"></rect>
    <rect width="284" height="0.3" x="159" y="588.5" rx="0.5" transform="rotate(140, 301, 589)" opacity="0.69"></rect>
    <rect width="614" height="0.3" x="-252" y="481.5" rx="0.5" transform="rotate(140, 55, 482)" opacity="0.58"></rect>
    <rect width="90" height="0.3" x="276" y="38.5" rx="0.5" transform="rotate(140, 321, 39)" opacity="0.37"></rect>
    <rect width="139" height="0.3" x="209.5" y="162.5" rx="0.5" transform="rotate(140, 279, 163)" opacity="0.56"></rect>
    <rect width="478" height="0.3" x="-134" y="649.5" rx="0.5" transform="rotate(140, 105, 650)" opacity="0.88"></rect>
    <rect width="663" height="0.3" x="45.5" y="724.5" rx="0.5" transform="rotate(140, 377, 725)" opacity="0.26"></rect>
    <rect width="534" height="0.3" x="-109" y="756.5" rx="0.5" transform="rotate(140, 158, 757)" opacity="0.43"></rect>
    <rect width="250" height="0.3" x="-13" y="546.5" rx="0.5" transform="rotate(140, 112, 547)" opacity="0.43"></rect>
    <rect width="461" height="0.3" x="378.5" y="352.5" rx="0.5" transform="rotate(140, 609, 353)" opacity="0.67"></rect>
    <rect width="291" height="0.3" x="627.5" y="257.5" rx="0.5" transform="rotate(140, 773, 258)" opacity="0.60"></rect>
    <rect width="245" height="0.3" x="170.5" y="238.5" rx="0.5" transform="rotate(140, 293, 239)" opacity="0.43"></rect>
    <rect width="76" height="0.3" x="406" y="250.5" rx="0.5" transform="rotate(140, 444, 251)" opacity="0.65"></rect>
    <rect width="79" height="0.3" x="9.5" y="309.5" rx="0.5" transform="rotate(140, 49, 310)" opacity="0.55"></rect>
    <rect width="511" height="0.3" x="284.5" y="93.5" rx="0.5" transform="rotate(140, 540, 94)" opacity="0.27"></rect>
    <rect width="441" height="0.3" x="530.5" y="470.5" rx="0.5" transform="rotate(140, 751, 471)" opacity="0.81"></rect>
    <rect width="273" height="0.3" x="634.5" y="364.5" rx="0.5" transform="rotate(140, 771, 365)" opacity="0.22"></rect>
    <rect width="267" height="0.3" x="517.5" y="47.5" rx="0.5" transform="rotate(140, 651, 48)" opacity="0.96"></rect>
    <rect width="101" height="0.3" x="487.5" y="681.5" rx="0.5" transform="rotate(140, 538, 682)" opacity="0.36"></rect>
    <rect width="542" height="0.3" x="-47" y="86.5" rx="0.5" transform="rotate(140, 224, 87)" opacity="0.78"></rect>
    <rect width="188" height="0.3" x="652" y="108.5" rx="0.5" transform="rotate(140, 746, 109)" opacity="0.79"></rect>
    <rect width="218" height="0.3" x="163" y="294.5" rx="0.5" transform="rotate(140, 272, 295)" opacity="0.66"></rect>
    <rect width="382" height="0.3" x="450" y="768.5" rx="0.5" transform="rotate(140, 641, 769)" opacity="0.11"></rect>
    <rect width="280" height="0.3" x="254" y="580.5" rx="0.5" transform="rotate(140, 394, 581)" opacity="0.10"></rect>
    <rect width="149" height="0.3" x="-48.5" y="265.5" rx="0.5" transform="rotate(140, 26, 266)" opacity="0.66"></rect>
    <rect width="182" height="0.3" x="29" y="341.5" rx="0.5" transform="rotate(140, 120, 342)" opacity="0.55"></rect>
    <rect width="361" height="0.3" x="24.5" y="671.5" rx="0.5" transform="rotate(140, 205, 672)" opacity="0.31"></rect>
    <rect width="366" height="0.3" x="160" y="494.5" rx="0.5" transform="rotate(140, 343, 495)" opacity="0.82"></rect>
    <rect width="159" height="0.3" x="584.5" y="685.5" rx="0.5" transform="rotate(140, 664, 686)" opacity="0.57"></rect>
    <rect width="330" height="0.3" x="299" y="166.5" rx="0.5" transform="rotate(140, 464, 167)" opacity="0.83"></rect>
    <rect width="61" height="0.3" x="388.5" y="457.5" rx="0.5" transform="rotate(140, 419, 458)" opacity="0.45"></rect>
    <rect width="294" height="0.3" x="-103" y="398.5" rx="0.5" transform="rotate(140, 44, 399)" opacity="0.78"></rect>
    <rect width="494" height="0.3" x="127" y="105.5" rx="0.5" transform="rotate(140, 374, 106)" opacity="0.07"></rect>
    <rect width="166" height="0.3" x="517" y="166.5" rx="0.5" transform="rotate(140, 600, 167)" opacity="0.50"></rect>
    <rect width="334" height="0.3" x="343" y="589.5" rx="0.5" transform="rotate(140, 510, 590)" opacity="0.38"></rect>
    <rect width="74" height="0.3" x="458" y="531.5" rx="0.5" transform="rotate(140, 495, 532)" opacity="0.75"></rect>
    <rect width="413" height="0.3" x="213.5" y="397.5" rx="0.5" transform="rotate(140, 420, 398)" opacity="0.29"></rect>
    <rect width="346" height="0.3" x="83" y="445.5" rx="0.5" transform="rotate(140, 256, 446)" opacity="0.52"></rect>
    <rect width="409" height="0.3" x="-88.5" y="208.5" rx="0.5" transform="rotate(140, 116, 209)" opacity="0.54"></rect>
    <rect width="490" height="0.3" x="-43" y="560.5" rx="0.5" transform="rotate(140, 202, 561)" opacity="0.49"></rect>
    <rect width="372" height="0.3" x="-7" y="275.5" rx="0.5" transform="rotate(140, 179, 276)" opacity="0.12"></rect>
    <rect width="113" height="0.3" x="107.5" y="439.5" rx="0.5" transform="rotate(140, 164, 440)" opacity="0.63"></rect>
    <rect width="446" height="0.3" x="-182" y="145.5" rx="0.5" transform="rotate(140, 41, 146)" opacity="0.58"></rect>
    <rect width="645" height="0.3" x="-255.5" y="61.5" rx="0.5" transform="rotate(140, 67, 62)" opacity="0.77"></rect>
    <rect width="59" height="0.3" x="722.5" y="576.5" rx="0.5" transform="rotate(140, 752, 577)" opacity="0.77"></rect>
    <rect width="53" height="0.3" x="417.5" y="647.5" rx="0.5" transform="rotate(140, 444, 648)" opacity="0.89"></rect>
    <rect width="550" height="0.3" x="300" y="613.5" rx="0.5" transform="rotate(140, 575, 614)" opacity="0.13"></rect>
    <rect width="540" height="0.3" x="249" y="389.5" rx="0.5" transform="rotate(140, 519, 390)" opacity="0.58"></rect>
    <rect width="473" height="0.3" x="364.5" y="704.5" rx="0.5" transform="rotate(140, 601, 705)" opacity="0.28"></rect>
    <rect width="233" height="0.3" x="233.5" y="289.5" rx="0.5" transform="rotate(140, 350, 290)" opacity="0.97"></rect>
    <rect width="327" height="0.3" x="269.5" y="516.5" rx="0.5" transform="rotate(140, 433, 517)" opacity="0.50"></rect>
    <rect width="611" height="0.3" x="187.5" y="753.5" rx="0.5" transform="rotate(140, 493, 754)" opacity="0.96"></rect>
    <rect width="476" height="0.3" x="-18" y="222.5" rx="0.5" transform="rotate(140, 220, 223)" opacity="0.94"></rect>
    <rect width="559" height="0.3" x="77.5" y="196.5" rx="0.5" transform="rotate(140, 357, 197)" opacity="0.62"></rect>
    <rect width="88" height="0.3" x="-6" y="709.5" rx="0.5" transform="rotate(140, 38, 710)" opacity="0.32"></rect>
    <rect width="203" height="0.3" x="81.5" y="154.5" rx="0.5" transform="rotate(140, 183, 155)" opacity="0.25"></rect>
    <rect width="340" height="0.3" x="0" y="32.5" rx="0.5" transform="rotate(140, 170, 33)" opacity="0.82"></rect>
    <rect width="491" height="0.3" x="458.5" y="384.5" rx="0.5" transform="rotate(140, 704, 385)" opacity="0.50"></rect>
    <rect width="282" height="0.3" x="-119" y="769.5" rx="0.5" transform="rotate(140, 22, 770)" opacity="0.52"></rect>
    <rect width="287" height="0.3" x="359.5" y="462.5" rx="0.5" transform="rotate(140, 503, 463)" opacity="0.18"></rect>
    <rect width="378" height="0.3" x="543" y="674.5" rx="0.5" transform="rotate(140, 732, 675)" opacity="0.70"></rect>
    <rect width="90" height="0.3" x="531" y="521.5" rx="0.5" transform="rotate(140, 576, 522)" opacity="0.93"></rect>
    <rect width="231" height="0.3" x="328.5" y="326.5" rx="0.5" transform="rotate(140, 444, 327)" opacity="0.60"></rect>
    <rect width="98" height="0.3" x="294" y="360.5" rx="0.5" transform="rotate(140, 343, 361)" opacity="0.75"></rect>
  </g>
</svg>
